<svg preserveAspectRatio="none" overflow="visible" style="display: block;" width="16" height="16" viewBox="0 0 16 16" fill="none" xmlns="http://www.w3.org/2000/svg">
<g id="Icon">
<path id="Vector" d="M14.3538 4.85375L6.35375 12.8538C6.30731 12.9002 6.25217 12.9371 6.19147 12.9623C6.13077 12.9874 6.06571 13.0004 6 13.0004C5.93429 13.0004 5.86923 12.9874 5.80853 12.9623C5.74783 12.9371 5.69269 12.9002 5.64625 12.8538L2.14625 9.35375C2.05243 9.25993 1.99972 9.13268 1.99972 9C1.99972 8.86732 2.05243 8.74007 2.14625 8.64625C2.24007 8.55243 2.36732 8.49972 2.5 8.49972C2.63268 8.49972 2.75993 8.55243 2.85375 8.64625L6 11.7931L13.6463 4.14625C13.7401 4.05243 13.8673 3.99972 14 3.99972C14.1327 3.99972 14.2599 4.05243 14.3538 4.14625C14.4476 4.24007 14.5003 4.36732 14.5003 4.5C14.5003 4.63268 14.4476 4.75993 14.3538 4.85375Z" fill="#FB602B"/>
</g>
</svg>
