<svg preserveAspectRatio="none" overflow="visible" style="display: block;" width="24" height="24" viewBox="0 0 24 24" fill="none" xmlns="http://www.w3.org/2000/svg">
<g id="Icon">
<path id="Vector" d="M16.5 15C15.9997 14.9998 15.5044 15.1001 15.0436 15.2948C14.5827 15.4894 14.1656 15.7746 13.8169 16.1334L9.495 13.3556C9.83496 12.4838 9.83496 11.5162 9.495 10.6444L13.8169 7.86656C14.4661 8.53155 15.339 8.9318 16.2665 8.98971C17.1941 9.04763 18.11 8.75908 18.8369 8.18001C19.5637 7.60095 20.0497 6.77261 20.2005 5.85561C20.3513 4.93861 20.1563 3.99828 19.6532 3.21691C19.1501 2.43554 18.3748 1.86882 17.4776 1.62661C16.5804 1.3844 15.6252 1.48396 14.7973 1.90599C13.9693 2.32802 13.3275 3.04245 12.9964 3.91077C12.6652 4.77909 12.6683 5.73944 13.005 6.60562L8.68313 9.38344C8.16269 8.84913 7.49474 8.48217 6.76466 8.32945C6.03458 8.17673 5.27555 8.24519 4.58459 8.52609C3.89362 8.80699 3.30212 9.28756 2.8857 9.90638C2.46927 10.5252 2.24684 11.2541 2.24684 12C2.24684 12.7459 2.46927 13.4748 2.8857 14.0936C3.30212 14.7124 3.89362 15.193 4.58459 15.4739C5.27555 15.7548 6.03458 15.8233 6.76466 15.6706C7.49474 15.5178 8.16269 15.1509 8.68313 14.6166L13.005 17.3944C12.7155 18.1411 12.6726 18.9609 12.8827 19.7338C13.0929 20.5067 13.5449 21.1919 14.1727 21.6893C14.8004 22.1867 15.5709 22.47 16.3714 22.4977C17.1718 22.5255 17.9601 22.2963 18.6208 21.8436C19.2815 21.391 19.78 20.7387 20.0432 19.9822C20.3063 19.2258 20.3204 18.405 20.0833 17.64C19.8463 16.875 19.3705 16.2059 18.7257 15.7309C18.0809 15.2558 17.3009 14.9997 16.5 15ZM16.5 3C16.945 3 17.38 3.13196 17.75 3.37919C18.12 3.62643 18.4084 3.97783 18.5787 4.38896C18.749 4.8001 18.7936 5.2525 18.7068 5.68895C18.62 6.12541 18.4057 6.52632 18.091 6.84099C17.7763 7.15566 17.3754 7.36995 16.939 7.45677C16.5025 7.54358 16.0501 7.49903 15.639 7.32873C15.2278 7.15843 14.8764 6.87004 14.6292 6.50003C14.382 6.13002 14.25 5.69501 14.25 5.25C14.25 4.65326 14.4871 4.08097 14.909 3.65901C15.331 3.23705 15.9033 3 16.5 3ZM6 14.25C5.55499 14.25 5.11998 14.118 4.74997 13.8708C4.37996 13.6236 4.09157 13.2722 3.92127 12.861C3.75097 12.4499 3.70642 11.9975 3.79323 11.561C3.88005 11.1246 4.09434 10.7237 4.40901 10.409C4.72368 10.0943 5.12459 9.88005 5.56105 9.79323C5.9975 9.70642 6.4499 9.75097 6.86104 9.92127C7.27217 10.0916 7.62357 10.38 7.87081 10.75C8.11804 11.12 8.25 11.555 8.25 12C8.25 12.5967 8.01295 13.169 7.59099 13.591C7.16903 14.0129 6.59674 14.25 6 14.25ZM16.5 21C16.055 21 15.62 20.868 15.25 20.6208C14.88 20.3736 14.5916 20.0222 14.4213 19.611C14.251 19.1999 14.2064 18.7475 14.2932 18.311C14.3801 17.8746 14.5943 17.4737 14.909 17.159C15.2237 16.8443 15.6246 16.63 16.061 16.5432C16.4975 16.4564 16.9499 16.501 17.361 16.6713C17.7722 16.8416 18.1236 17.13 18.3708 17.5C18.618 17.87 18.75 18.305 18.75 18.75C18.75 19.3467 18.5129 19.919 18.091 20.341C17.669 20.7629 17.0967 21 16.5 21Z" fill="#013C55"/>
</g>
</svg>
